<svg width="50" height="50" viewBox="0 0 50 50" fill="none" xmlns="http://www.w3.org/2000/svg">
<g clip-path="url(#clip0_17_10203)">
<path d="M6.25 38.5416V10.4166C6.25 8.75902 6.90848 7.16931 8.08058 5.99721C9.25269 4.82511 10.8424 4.16663 12.5 4.16663H41.6667C42.2192 4.16663 42.7491 4.38612 43.1398 4.77682C43.5305 5.16752 43.75 5.69742 43.75 6.24996V43.75C43.75 44.3025 43.5305 44.8324 43.1398 45.2231C42.7491 45.6138 42.2192 45.8333 41.6667 45.8333H13.5417C11.6078 45.8333 9.75313 45.0651 8.38568 43.6976C7.01823 42.3302 6.25 40.4755 6.25 38.5416V38.5416ZM39.5833 41.6666V35.4166H13.5417C12.7129 35.4166 11.918 35.7459 11.332 36.3319C10.7459 36.918 10.4167 37.7128 10.4167 38.5416C10.4167 39.3704 10.7459 40.1653 11.332 40.7513C11.918 41.3374 12.7129 41.6666 13.5417 41.6666H39.5833ZM10.4167 31.952C11.3931 31.4884 12.4607 31.2485 13.5417 31.25H39.5833V8.33329H12.5C11.9475 8.33329 11.4176 8.55279 11.0269 8.94349C10.6362 9.33419 10.4167 9.86409 10.4167 10.4166V31.952Z" fill="#09121F"/>
</g>
<defs>
<clipPath id="clip0_17_10203">
<rect width="50" height="50" fill="white"/>
</clipPath>
</defs>
</svg>
