<svg width="50" height="50" viewBox="0 0 50 50" fill="none" xmlns="http://www.w3.org/2000/svg">
<g clip-path="url(#clip0_17_10214)">
<path d="M6.25 6.25H43.75C44.3025 6.25 44.8324 6.46949 45.2231 6.86019C45.6138 7.25089 45.8333 7.7808 45.8333 8.33333V41.6667C45.8333 42.2192 45.6138 42.7491 45.2231 43.1398C44.8324 43.5305 44.3025 43.75 43.75 43.75H6.25C5.69746 43.75 5.16756 43.5305 4.77686 43.1398C4.38616 42.7491 4.16666 42.2192 4.16666 41.6667V8.33333C4.16666 7.7808 4.38616 7.25089 4.77686 6.86019C5.16756 6.46949 5.69746 6.25 6.25 6.25V6.25ZM8.33333 10.4167V39.5833H41.6667V10.4167H8.33333ZM41.6667 25L34.3 32.3667L31.3542 29.4187L35.775 25L31.3542 20.5812L34.3 17.6333L41.6667 25ZM14.225 25L18.6458 29.4187L15.7 32.3667L8.33333 25L15.7 17.6333L18.6458 20.5833L14.225 25ZM23.425 35.4167H18.9917L26.575 14.5833H31.0083L23.425 35.4167Z" fill="#09121F"/>
</g>
<defs>
<clipPath id="clip0_17_10214">
<rect width="50" height="50" fill="white"/>
</clipPath>
</defs>
</svg>
