<svg width="50" height="50" viewBox="0 0 50 50" fill="none" xmlns="http://www.w3.org/2000/svg">
<g clip-path="url(#clip0_17_10258)">
<path d="M25 4.16663C36.5063 4.16663 45.8334 13.4937 45.8334 25C45.8334 36.5062 36.5063 45.8333 25 45.8333C13.4938 45.8333 4.16669 36.5062 4.16669 25C4.16669 13.4937 13.4938 4.16663 25 4.16663ZM28.4792 33.3333H21.5209L18.6459 37.2854L19.8 40.8395C21.4785 41.3893 23.2338 41.6684 25 41.6666C26.8146 41.6666 28.5625 41.375 30.2 40.8395L31.3521 37.2854L28.4771 33.3333H28.4792ZM11.0292 22.65L8.33752 24.602L8.33335 25C8.33335 28.6041 9.4771 31.9395 11.4209 34.6666H15.4L18.1563 30.875L16.0146 24.2708L11.0292 22.65V22.65ZM38.9709 22.65L33.9854 24.2708L31.8438 30.875L34.5979 34.6666H38.5771C40.5913 31.8462 41.6717 28.4658 41.6667 25L41.6604 24.6041L38.9709 22.65V22.65ZM25 19.8666L20.1167 23.4125L21.9834 29.1666H28.0146L29.8813 23.4125L25 19.8666ZM29.7729 9.02704L27.0834 10.9854V16.2291L32.6959 20.3062L37.3604 18.7916L38.5146 15.2437C36.3638 12.2664 33.2913 10.0813 29.7729 9.02704V9.02704ZM20.225 9.02704C16.7071 10.0823 13.6353 12.268 11.4854 15.2458L12.6396 18.7916L17.3042 20.3062L22.9167 16.2291V10.9854L20.225 9.02704V9.02704Z" fill="#09121F"/>
</g>
<defs>
<clipPath id="clip0_17_10258">
<rect width="50" height="50" fill="white"/>
</clipPath>
</defs>
</svg>
