<svg width="42" height="50" viewBox="0 0 42 50" fill="none" xmlns="http://www.w3.org/2000/svg">
<path d="M35.2709 14.5598L31.5463 18.2844C37.6411 24.3793 37.6411 34.1987 31.5463 40.1806C25.4515 46.2754 15.6321 46.2754 9.65011 40.1806C3.55531 34.0858 3.55531 24.2664 9.65011 18.2844L20.6546 7.27992V0L6.09481 14.5598C-2.0316 22.6862 -2.0316 35.7788 6.09481 43.9052C14.2212 52.0316 27.3138 52.0316 35.2709 43.9052C43.3973 35.7223 43.3973 22.6862 35.2709 14.5598Z" fill="#09121F"/>
<path d="M27.991 13.6569C29.487 13.6569 30.6998 12.4442 30.6998 10.9481C30.6998 9.45211 29.487 8.23931 27.991 8.23931C26.495 8.23931 25.2822 9.45211 25.2822 10.9481C25.2822 12.4442 26.495 13.6569 27.991 13.6569Z" fill="#09121F"/>
</svg>
