<svg width="42" height="38" viewBox="0 0 42 38" fill="none" xmlns="http://www.w3.org/2000/svg">
<path d="M2.24999 0.25H39.75C40.3025 0.25 40.8324 0.469493 41.2231 0.860194C41.6138 1.25089 41.8333 1.7808 41.8333 2.33333V35.6667C41.8333 36.2192 41.6138 36.7491 41.2231 37.1398C40.8324 37.5305 40.3025 37.75 39.75 37.75H2.24999C1.69746 37.75 1.16755 37.5305 0.776851 37.1398C0.38615 36.7491 0.166656 36.2192 0.166656 35.6667V2.33333C0.166656 1.7808 0.38615 1.25089 0.776851 0.860194C1.16755 0.469493 1.69746 0.25 2.24999 0.25V0.25ZM21 25.25V29.4167H33.5V25.25H21ZM13.5292 19L7.63749 24.8917L10.5833 27.8396L19.4229 19L10.5833 10.1604L7.63749 13.1083L13.5292 19Z" fill="#09121F"/>
</svg>
