<svg width="50" height="55" viewBox="0 0 50 55" fill="none" xmlns="http://www.w3.org/2000/svg">
<g clip-path="url(#clip0_17_10256)">
<path d="M26.3618 9.7588L35.032 14.7426C35.3436 14.9176 35.355 15.403 35.032 15.578L24.7298 21.5044C24.4182 21.685 24.0498 21.6737 23.7607 21.5044L13.4586 15.578C13.1412 15.4086 13.1356 14.912 13.4586 14.7426L22.1231 9.7588V0L0 12.722V38.1659L8.48316 33.2895V23.3218C8.47748 22.9661 8.89682 22.7122 9.2085 22.9041L19.5107 28.8305C19.8223 29.0111 19.998 29.333 19.998 29.6659V41.513C20.0037 41.8686 19.5843 42.1225 19.2727 41.9307L10.6025 36.9468L2.11937 41.8234L24.2425 54.5455L46.3655 41.8234L37.8823 36.9468L29.2123 41.9307C28.9061 42.117 28.4755 41.8743 28.4868 41.513V29.6659C28.4868 29.3102 28.6852 28.9943 28.9741 28.8305L39.2764 22.9041C39.5823 22.7179 40.013 22.955 40.0016 23.3218V33.2895L48.4848 38.1659V12.722L26.3618 0V9.7588Z" fill="#09121F"/>
</g>
<defs>
<clipPath id="clip0_17_10256">
<rect width="50" height="54.5455" fill="white"/>
</clipPath>
</defs>
</svg>
