<svg width="50" height="50" viewBox="0 0 50 50" fill="none" xmlns="http://www.w3.org/2000/svg">
<g clip-path="url(#clip0_17_10210)">
<path d="M15.8688 18.15L22.5458 13.3C23.2954 12.7515 24.2071 12.4698 25.1354 12.5C26.2677 12.5282 27.3631 12.9086 28.2693 13.5881C29.1754 14.2676 29.8474 15.2126 30.1917 16.2917C30.5792 17.5063 30.9333 18.3271 31.2542 18.7542C32.2236 20.0475 33.4811 21.0971 34.9269 21.8196C36.3727 22.5422 37.967 22.9178 39.5833 22.9167V27.0833C37.4319 27.0857 35.3066 26.611 33.3606 25.6935C31.4146 24.7759 29.6962 23.4384 28.3292 21.7771L26.8771 30.0167L31.1708 33.6208L35.8021 46.3458L31.8854 47.7708L27.6354 36.0958L20.5729 30.1688C19.9933 29.7007 19.5498 29.0859 19.2886 28.3882C19.0273 27.6906 18.9579 26.9357 19.0875 26.2021L20.1479 20.1917L18.7375 21.2167L14.3063 27.3167L10.9354 24.8667L15.8333 18.125L15.8688 18.15ZM28.125 11.4583C27.0199 11.4583 25.9601 11.0193 25.1787 10.2379C24.3973 9.45654 23.9583 8.39674 23.9583 7.29167C23.9583 6.1866 24.3973 5.12679 25.1787 4.34539C25.9601 3.56399 27.0199 3.125 28.125 3.125C29.2301 3.125 30.2899 3.56399 31.0713 4.34539C31.8527 5.12679 32.2917 6.1866 32.2917 7.29167C32.2917 8.39674 31.8527 9.45654 31.0713 10.2379C30.2899 11.0193 29.2301 11.4583 28.125 11.4583ZM21.9333 38.9188L15.2375 46.8979L12.0458 44.2208L18.2458 36.8333L19.8 32.2917L23.5313 35.4167L21.9333 38.9188Z" fill="#09121F"/>
</g>
<defs>
<clipPath id="clip0_17_10210">
<rect width="50" height="50" fill="white"/>
</clipPath>
</defs>
</svg>
