<svg width="640" height="370" viewBox="0 0 640 370" fill="none" xmlns="http://www.w3.org/2000/svg">
<rect y="370" width="10" height="10" transform="rotate(-90 0 370)" fill="#D2D3D5"/>
<rect x="30" y="370" width="10" height="10" transform="rotate(-90 30 370)" fill="#D2D3D5"/>
<rect x="60" y="370" width="10" height="10" transform="rotate(-90 60 370)" fill="#D2D3D5"/>
<rect x="90" y="370" width="10" height="10" transform="rotate(-90 90 370)" fill="#D2D3D5"/>
<rect x="120" y="370" width="10" height="10" transform="rotate(-90 120 370)" fill="#D2D3D5"/>
<rect x="150" y="370" width="10" height="10" transform="rotate(-90 150 370)" fill="#D2D3D5"/>
<rect x="180" y="370" width="10" height="10" transform="rotate(-90 180 370)" fill="#D2D3D5"/>
<rect x="210" y="370" width="10" height="10" transform="rotate(-90 210 370)" fill="#D2D3D5"/>
<rect x="240" y="370" width="10" height="10" transform="rotate(-90 240 370)" fill="#D2D3D5"/>
<rect x="270" y="370" width="10" height="10" transform="rotate(-90 270 370)" fill="#D2D3D5"/>
<rect x="300" y="370" width="10" height="10" transform="rotate(-90 300 370)" fill="#D2D3D5"/>
<rect x="330" y="370" width="10" height="10" transform="rotate(-90 330 370)" fill="#D2D3D5"/>
<rect x="360" y="370" width="10" height="10" transform="rotate(-90 360 370)" fill="#D2D3D5"/>
<rect x="390" y="370" width="10" height="10" transform="rotate(-90 390 370)" fill="#D2D3D5"/>
<rect x="420" y="370" width="10" height="10" transform="rotate(-90 420 370)" fill="#D2D3D5"/>
<rect x="450" y="370" width="10" height="10" transform="rotate(-90 450 370)" fill="#D2D3D5"/>
<rect x="480" y="370" width="10" height="10" transform="rotate(-90 480 370)" fill="#D2D3D5"/>
<rect x="510" y="370" width="10" height="10" transform="rotate(-90 510 370)" fill="#D2D3D5"/>
<rect x="540" y="370" width="10" height="10" transform="rotate(-90 540 370)" fill="#D2D3D5"/>
<rect x="570" y="370" width="10" height="10" transform="rotate(-90 570 370)" fill="#D2D3D5"/>
<rect x="600" y="370" width="10" height="10" transform="rotate(-90 600 370)" fill="#D2D3D5"/>
<rect x="630" y="370" width="10" height="10" transform="rotate(-90 630 370)" fill="#D2D3D5"/>
<rect y="340" width="10" height="10" transform="rotate(-90 0 340)" fill="#D2D3D5"/>
<rect x="30" y="340" width="10" height="10" transform="rotate(-90 30 340)" fill="#D2D3D5"/>
<rect x="60" y="340" width="10" height="10" transform="rotate(-90 60 340)" fill="#D2D3D5"/>
<rect x="90" y="340" width="10" height="10" transform="rotate(-90 90 340)" fill="#D2D3D5"/>
<rect x="120" y="340" width="10" height="10" transform="rotate(-90 120 340)" fill="#D2D3D5"/>
<rect x="150" y="340" width="10" height="10" transform="rotate(-90 150 340)" fill="#D2D3D5"/>
<rect x="180" y="340" width="10" height="10" transform="rotate(-90 180 340)" fill="#D2D3D5"/>
<rect x="210" y="340" width="10" height="10" transform="rotate(-90 210 340)" fill="#D2D3D5"/>
<rect x="240" y="340" width="10" height="10" transform="rotate(-90 240 340)" fill="#D2D3D5"/>
<rect x="270" y="340" width="10" height="10" transform="rotate(-90 270 340)" fill="#D2D3D5"/>
<rect x="300" y="340" width="10" height="10" transform="rotate(-90 300 340)" fill="#D2D3D5"/>
<rect x="330" y="340" width="10" height="10" transform="rotate(-90 330 340)" fill="#D2D3D5"/>
<rect x="360" y="340" width="10" height="10" transform="rotate(-90 360 340)" fill="#D2D3D5"/>
<rect x="390" y="340" width="10" height="10" transform="rotate(-90 390 340)" fill="#D2D3D5"/>
<rect x="420" y="340" width="10" height="10" transform="rotate(-90 420 340)" fill="#D2D3D5"/>
<rect x="450" y="340" width="10" height="10" transform="rotate(-90 450 340)" fill="#D2D3D5"/>
<rect x="480" y="340" width="10" height="10" transform="rotate(-90 480 340)" fill="#D2D3D5"/>
<rect x="510" y="340" width="10" height="10" transform="rotate(-90 510 340)" fill="#D2D3D5"/>
<rect x="540" y="340" width="10" height="10" transform="rotate(-90 540 340)" fill="#D2D3D5"/>
<rect x="570" y="340" width="10" height="10" transform="rotate(-90 570 340)" fill="#D2D3D5"/>
<rect x="600" y="340" width="10" height="10" transform="rotate(-90 600 340)" fill="#D2D3D5"/>
<rect x="630" y="340" width="10" height="10" transform="rotate(-90 630 340)" fill="#D2D3D5"/>
<rect y="310" width="10" height="10" transform="rotate(-90 0 310)" fill="#D2D3D5"/>
<rect x="30" y="310" width="10" height="10" transform="rotate(-90 30 310)" fill="#D2D3D5"/>
<rect x="60" y="310" width="10" height="10" transform="rotate(-90 60 310)" fill="#D2D3D5"/>
<rect x="90" y="310" width="10" height="10" transform="rotate(-90 90 310)" fill="#D2D3D5"/>
<rect x="120" y="310" width="10" height="10" transform="rotate(-90 120 310)" fill="#D2D3D5"/>
<rect x="150" y="310" width="10" height="10" transform="rotate(-90 150 310)" fill="#D2D3D5"/>
<rect x="180" y="310" width="10" height="10" transform="rotate(-90 180 310)" fill="#D2D3D5"/>
<rect x="210" y="310" width="10" height="10" transform="rotate(-90 210 310)" fill="#D2D3D5"/>
<rect x="240" y="310" width="10" height="10" transform="rotate(-90 240 310)" fill="#D2D3D5"/>
<rect x="270" y="310" width="10" height="10" transform="rotate(-90 270 310)" fill="#D2D3D5"/>
<rect x="300" y="310" width="10" height="10" transform="rotate(-90 300 310)" fill="#D2D3D5"/>
<rect x="330" y="310" width="10" height="10" transform="rotate(-90 330 310)" fill="#D2D3D5"/>
<rect x="360" y="310" width="10" height="10" transform="rotate(-90 360 310)" fill="#D2D3D5"/>
<rect x="390" y="310" width="10" height="10" transform="rotate(-90 390 310)" fill="#D2D3D5"/>
<rect x="420" y="310" width="10" height="10" transform="rotate(-90 420 310)" fill="#D2D3D5"/>
<rect x="450" y="310" width="10" height="10" transform="rotate(-90 450 310)" fill="#D2D3D5"/>
<rect x="480" y="310" width="10" height="10" transform="rotate(-90 480 310)" fill="#D2D3D5"/>
<rect x="510" y="310" width="10" height="10" transform="rotate(-90 510 310)" fill="#D2D3D5"/>
<rect x="540" y="310" width="10" height="10" transform="rotate(-90 540 310)" fill="#D2D3D5"/>
<rect x="570" y="310" width="10" height="10" transform="rotate(-90 570 310)" fill="#D2D3D5"/>
<rect x="600" y="310" width="10" height="10" transform="rotate(-90 600 310)" fill="#D2D3D5"/>
<rect x="630" y="310" width="10" height="10" transform="rotate(-90 630 310)" fill="#D2D3D5"/>
<rect y="280" width="10" height="10" transform="rotate(-90 0 280)" fill="#D2D3D5"/>
<rect x="30" y="280" width="10" height="10" transform="rotate(-90 30 280)" fill="#D2D3D5"/>
<rect x="60" y="280" width="10" height="10" transform="rotate(-90 60 280)" fill="#D2D3D5"/>
<rect x="90" y="280" width="10" height="10" transform="rotate(-90 90 280)" fill="#D2D3D5"/>
<rect x="120" y="280" width="10" height="10" transform="rotate(-90 120 280)" fill="#D2D3D5"/>
<rect x="150" y="280" width="10" height="10" transform="rotate(-90 150 280)" fill="#D2D3D5"/>
<rect x="180" y="280" width="10" height="10" transform="rotate(-90 180 280)" fill="#D2D3D5"/>
<rect x="210" y="280" width="10" height="10" transform="rotate(-90 210 280)" fill="#D2D3D5"/>
<rect x="240" y="280" width="10" height="10" transform="rotate(-90 240 280)" fill="#D2D3D5"/>
<rect x="270" y="280" width="10" height="10" transform="rotate(-90 270 280)" fill="#D2D3D5"/>
<rect x="300" y="280" width="10" height="10" transform="rotate(-90 300 280)" fill="#D2D3D5"/>
<rect x="330" y="280" width="10" height="10" transform="rotate(-90 330 280)" fill="#D2D3D5"/>
<rect x="360" y="280" width="10" height="10" transform="rotate(-90 360 280)" fill="#D2D3D5"/>
<rect x="390" y="280" width="10" height="10" transform="rotate(-90 390 280)" fill="#D2D3D5"/>
<rect x="420" y="280" width="10" height="10" transform="rotate(-90 420 280)" fill="#D2D3D5"/>
<rect x="450" y="280" width="10" height="10" transform="rotate(-90 450 280)" fill="#D2D3D5"/>
<rect x="480" y="280" width="10" height="10" transform="rotate(-90 480 280)" fill="#D2D3D5"/>
<rect x="510" y="280" width="10" height="10" transform="rotate(-90 510 280)" fill="#D2D3D5"/>
<rect x="540" y="280" width="10" height="10" transform="rotate(-90 540 280)" fill="#D2D3D5"/>
<rect x="570" y="280" width="10" height="10" transform="rotate(-90 570 280)" fill="#D2D3D5"/>
<rect x="600" y="280" width="10" height="10" transform="rotate(-90 600 280)" fill="#D2D3D5"/>
<rect x="630" y="280" width="10" height="10" transform="rotate(-90 630 280)" fill="#D2D3D5"/>
<rect y="250" width="10" height="10" transform="rotate(-90 0 250)" fill="#D2D3D5"/>
<rect x="30" y="250" width="10" height="10" transform="rotate(-90 30 250)" fill="#D2D3D5"/>
<rect x="60" y="250" width="10" height="10" transform="rotate(-90 60 250)" fill="#D2D3D5"/>
<rect x="90" y="250" width="10" height="10" transform="rotate(-90 90 250)" fill="#D2D3D5"/>
<rect x="120" y="250" width="10" height="10" transform="rotate(-90 120 250)" fill="#D2D3D5"/>
<rect x="150" y="250" width="10" height="10" transform="rotate(-90 150 250)" fill="#D2D3D5"/>
<rect x="180" y="250" width="10" height="10" transform="rotate(-90 180 250)" fill="#D2D3D5"/>
<rect x="210" y="250" width="10" height="10" transform="rotate(-90 210 250)" fill="#D2D3D5"/>
<rect x="240" y="250" width="10" height="10" transform="rotate(-90 240 250)" fill="#D2D3D5"/>
<rect x="270" y="250" width="10" height="10" transform="rotate(-90 270 250)" fill="#D2D3D5"/>
<rect x="300" y="250" width="10" height="10" transform="rotate(-90 300 250)" fill="#D2D3D5"/>
<rect x="330" y="250" width="10" height="10" transform="rotate(-90 330 250)" fill="#D2D3D5"/>
<rect x="360" y="250" width="10" height="10" transform="rotate(-90 360 250)" fill="#D2D3D5"/>
<rect x="390" y="250" width="10" height="10" transform="rotate(-90 390 250)" fill="#D2D3D5"/>
<rect x="420" y="250" width="10" height="10" transform="rotate(-90 420 250)" fill="#D2D3D5"/>
<rect x="450" y="250" width="10" height="10" transform="rotate(-90 450 250)" fill="#D2D3D5"/>
<rect x="480" y="250" width="10" height="10" transform="rotate(-90 480 250)" fill="#D2D3D5"/>
<rect x="510" y="250" width="10" height="10" transform="rotate(-90 510 250)" fill="#D2D3D5"/>
<rect x="540" y="250" width="10" height="10" transform="rotate(-90 540 250)" fill="#D2D3D5"/>
<rect x="570" y="250" width="10" height="10" transform="rotate(-90 570 250)" fill="#D2D3D5"/>
<rect x="600" y="250" width="10" height="10" transform="rotate(-90 600 250)" fill="#D2D3D5"/>
<rect x="630" y="250" width="10" height="10" transform="rotate(-90 630 250)" fill="#D2D3D5"/>
<rect y="220" width="10" height="10" transform="rotate(-90 0 220)" fill="#D2D3D5"/>
<rect x="30" y="220" width="10" height="10" transform="rotate(-90 30 220)" fill="#D2D3D5"/>
<rect x="60" y="220" width="10" height="10" transform="rotate(-90 60 220)" fill="#D2D3D5"/>
<rect x="90" y="220" width="10" height="10" transform="rotate(-90 90 220)" fill="#D2D3D5"/>
<rect x="120" y="220" width="10" height="10" transform="rotate(-90 120 220)" fill="#D2D3D5"/>
<rect x="150" y="220" width="10" height="10" transform="rotate(-90 150 220)" fill="#D2D3D5"/>
<rect x="180" y="220" width="10" height="10" transform="rotate(-90 180 220)" fill="#D2D3D5"/>
<rect x="210" y="220" width="10" height="10" transform="rotate(-90 210 220)" fill="#D2D3D5"/>
<rect x="240" y="220" width="10" height="10" transform="rotate(-90 240 220)" fill="#D2D3D5"/>
<rect x="270" y="220" width="10" height="10" transform="rotate(-90 270 220)" fill="#D2D3D5"/>
<rect x="300" y="220" width="10" height="10" transform="rotate(-90 300 220)" fill="#D2D3D5"/>
<rect x="330" y="220" width="10" height="10" transform="rotate(-90 330 220)" fill="#D2D3D5"/>
<rect x="360" y="220" width="10" height="10" transform="rotate(-90 360 220)" fill="#D2D3D5"/>
<rect x="390" y="220" width="10" height="10" transform="rotate(-90 390 220)" fill="#D2D3D5"/>
<rect x="420" y="220" width="10" height="10" transform="rotate(-90 420 220)" fill="#D2D3D5"/>
<rect x="450" y="220" width="10" height="10" transform="rotate(-90 450 220)" fill="#D2D3D5"/>
<rect x="480" y="220" width="10" height="10" transform="rotate(-90 480 220)" fill="#D2D3D5"/>
<rect x="510" y="220" width="10" height="10" transform="rotate(-90 510 220)" fill="#D2D3D5"/>
<rect x="540" y="220" width="10" height="10" transform="rotate(-90 540 220)" fill="#D2D3D5"/>
<rect x="570" y="220" width="10" height="10" transform="rotate(-90 570 220)" fill="#D2D3D5"/>
<rect x="600" y="220" width="10" height="10" transform="rotate(-90 600 220)" fill="#D2D3D5"/>
<rect x="630" y="220" width="10" height="10" transform="rotate(-90 630 220)" fill="#D2D3D5"/>
<rect y="190" width="10" height="10" transform="rotate(-90 0 190)" fill="#D2D3D5"/>
<rect x="30" y="190" width="10" height="10" transform="rotate(-90 30 190)" fill="#D2D3D5"/>
<rect x="60" y="190" width="10" height="10" transform="rotate(-90 60 190)" fill="#D2D3D5"/>
<rect x="90" y="190" width="10" height="10" transform="rotate(-90 90 190)" fill="#D2D3D5"/>
<rect x="120" y="190" width="10" height="10" transform="rotate(-90 120 190)" fill="#D2D3D5"/>
<rect x="150" y="190" width="10" height="10" transform="rotate(-90 150 190)" fill="#D2D3D5"/>
<rect x="180" y="190" width="10" height="10" transform="rotate(-90 180 190)" fill="#D2D3D5"/>
<rect x="210" y="190" width="10" height="10" transform="rotate(-90 210 190)" fill="#D2D3D5"/>
<rect x="240" y="190" width="10" height="10" transform="rotate(-90 240 190)" fill="#D2D3D5"/>
<rect x="270" y="190" width="10" height="10" transform="rotate(-90 270 190)" fill="#D2D3D5"/>
<rect x="300" y="190" width="10" height="10" transform="rotate(-90 300 190)" fill="#D2D3D5"/>
<rect x="330" y="190" width="10" height="10" transform="rotate(-90 330 190)" fill="#D2D3D5"/>
<rect x="360" y="190" width="10" height="10" transform="rotate(-90 360 190)" fill="#D2D3D5"/>
<rect x="390" y="190" width="10" height="10" transform="rotate(-90 390 190)" fill="#D2D3D5"/>
<rect x="420" y="190" width="10" height="10" transform="rotate(-90 420 190)" fill="#D2D3D5"/>
<rect x="450" y="190" width="10" height="10" transform="rotate(-90 450 190)" fill="#D2D3D5"/>
<rect x="480" y="190" width="10" height="10" transform="rotate(-90 480 190)" fill="#D2D3D5"/>
<rect x="510" y="190" width="10" height="10" transform="rotate(-90 510 190)" fill="#D2D3D5"/>
<rect x="540" y="190" width="10" height="10" transform="rotate(-90 540 190)" fill="#D2D3D5"/>
<rect x="570" y="190" width="10" height="10" transform="rotate(-90 570 190)" fill="#D2D3D5"/>
<rect x="600" y="190" width="10" height="10" transform="rotate(-90 600 190)" fill="#D2D3D5"/>
<rect x="630" y="190" width="10" height="10" transform="rotate(-90 630 190)" fill="#D2D3D5"/>
<rect y="160" width="10" height="10" transform="rotate(-90 0 160)" fill="#D2D3D5"/>
<rect x="30" y="160" width="10" height="10" transform="rotate(-90 30 160)" fill="#D2D3D5"/>
<rect x="60" y="160" width="10" height="10" transform="rotate(-90 60 160)" fill="#D2D3D5"/>
<rect x="90" y="160" width="10" height="10" transform="rotate(-90 90 160)" fill="#D2D3D5"/>
<rect x="120" y="160" width="10" height="10" transform="rotate(-90 120 160)" fill="#D2D3D5"/>
<rect x="150" y="160" width="10" height="10" transform="rotate(-90 150 160)" fill="#D2D3D5"/>
<rect x="180" y="160" width="10" height="10" transform="rotate(-90 180 160)" fill="#D2D3D5"/>
<rect x="210" y="160" width="10" height="10" transform="rotate(-90 210 160)" fill="#D2D3D5"/>
<rect x="240" y="160" width="10" height="10" transform="rotate(-90 240 160)" fill="#D2D3D5"/>
<rect x="270" y="160" width="10" height="10" transform="rotate(-90 270 160)" fill="#D2D3D5"/>
<rect x="300" y="160" width="10" height="10" transform="rotate(-90 300 160)" fill="#D2D3D5"/>
<rect x="330" y="160" width="10" height="10" transform="rotate(-90 330 160)" fill="#D2D3D5"/>
<rect x="360" y="160" width="10" height="10" transform="rotate(-90 360 160)" fill="#D2D3D5"/>
<rect x="390" y="160" width="10" height="10" transform="rotate(-90 390 160)" fill="#D2D3D5"/>
<rect x="420" y="160" width="10" height="10" transform="rotate(-90 420 160)" fill="#D2D3D5"/>
<rect x="450" y="160" width="10" height="10" transform="rotate(-90 450 160)" fill="#D2D3D5"/>
<rect x="480" y="160" width="10" height="10" transform="rotate(-90 480 160)" fill="#D2D3D5"/>
<rect x="510" y="160" width="10" height="10" transform="rotate(-90 510 160)" fill="#D2D3D5"/>
<rect x="540" y="160" width="10" height="10" transform="rotate(-90 540 160)" fill="#D2D3D5"/>
<rect x="570" y="160" width="10" height="10" transform="rotate(-90 570 160)" fill="#D2D3D5"/>
<rect x="600" y="160" width="10" height="10" transform="rotate(-90 600 160)" fill="#D2D3D5"/>
<rect x="630" y="160" width="10" height="10" transform="rotate(-90 630 160)" fill="#D2D3D5"/>
<rect y="130" width="10" height="10" transform="rotate(-90 0 130)" fill="#D2D3D5"/>
<rect x="30" y="130" width="10" height="10" transform="rotate(-90 30 130)" fill="#D2D3D5"/>
<rect x="60" y="130" width="10" height="10" transform="rotate(-90 60 130)" fill="#D2D3D5"/>
<rect x="90" y="130" width="10" height="10" transform="rotate(-90 90 130)" fill="#D2D3D5"/>
<rect x="120" y="130" width="10" height="10" transform="rotate(-90 120 130)" fill="#D2D3D5"/>
<rect x="150" y="130" width="10" height="10" transform="rotate(-90 150 130)" fill="#D2D3D5"/>
<rect x="180" y="130" width="10" height="10" transform="rotate(-90 180 130)" fill="#D2D3D5"/>
<rect x="210" y="130" width="10" height="10" transform="rotate(-90 210 130)" fill="#D2D3D5"/>
<rect x="240" y="130" width="10" height="10" transform="rotate(-90 240 130)" fill="#D2D3D5"/>
<rect x="270" y="130" width="10" height="10" transform="rotate(-90 270 130)" fill="#D2D3D5"/>
<rect x="300" y="130" width="10" height="10" transform="rotate(-90 300 130)" fill="#D2D3D5"/>
<rect x="330" y="130" width="10" height="10" transform="rotate(-90 330 130)" fill="#D2D3D5"/>
<rect x="360" y="130" width="10" height="10" transform="rotate(-90 360 130)" fill="#D2D3D5"/>
<rect x="390" y="130" width="10" height="10" transform="rotate(-90 390 130)" fill="#D2D3D5"/>
<rect x="420" y="130" width="10" height="10" transform="rotate(-90 420 130)" fill="#D2D3D5"/>
<rect x="450" y="130" width="10" height="10" transform="rotate(-90 450 130)" fill="#D2D3D5"/>
<rect x="480" y="130" width="10" height="10" transform="rotate(-90 480 130)" fill="#D2D3D5"/>
<rect x="510" y="130" width="10" height="10" transform="rotate(-90 510 130)" fill="#D2D3D5"/>
<rect x="540" y="130" width="10" height="10" transform="rotate(-90 540 130)" fill="#D2D3D5"/>
<rect x="570" y="130" width="10" height="10" transform="rotate(-90 570 130)" fill="#D2D3D5"/>
<rect x="600" y="130" width="10" height="10" transform="rotate(-90 600 130)" fill="#D2D3D5"/>
<rect x="630" y="130" width="10" height="10" transform="rotate(-90 630 130)" fill="#D2D3D5"/>
<rect y="100" width="10" height="10" transform="rotate(-90 0 100)" fill="#D2D3D5"/>
<rect x="30" y="100" width="10" height="10" transform="rotate(-90 30 100)" fill="#D2D3D5"/>
<rect x="60" y="100" width="10" height="10" transform="rotate(-90 60 100)" fill="#D2D3D5"/>
<rect x="90" y="100" width="10" height="10" transform="rotate(-90 90 100)" fill="#D2D3D5"/>
<rect x="120" y="100" width="10" height="10" transform="rotate(-90 120 100)" fill="#D2D3D5"/>
<rect x="150" y="100" width="10" height="10" transform="rotate(-90 150 100)" fill="#D2D3D5"/>
<rect x="180" y="100" width="10" height="10" transform="rotate(-90 180 100)" fill="#D2D3D5"/>
<rect x="210" y="100" width="10" height="10" transform="rotate(-90 210 100)" fill="#D2D3D5"/>
<rect x="240" y="100" width="10" height="10" transform="rotate(-90 240 100)" fill="#D2D3D5"/>
<rect x="270" y="100" width="10" height="10" transform="rotate(-90 270 100)" fill="#D2D3D5"/>
<rect x="300" y="100" width="10" height="10" transform="rotate(-90 300 100)" fill="#D2D3D5"/>
<rect x="330" y="100" width="10" height="10" transform="rotate(-90 330 100)" fill="#D2D3D5"/>
<rect x="360" y="100" width="10" height="10" transform="rotate(-90 360 100)" fill="#D2D3D5"/>
<rect x="390" y="100" width="10" height="10" transform="rotate(-90 390 100)" fill="#D2D3D5"/>
<rect x="420" y="100" width="10" height="10" transform="rotate(-90 420 100)" fill="#D2D3D5"/>
<rect x="450" y="100" width="10" height="10" transform="rotate(-90 450 100)" fill="#D2D3D5"/>
<rect x="480" y="100" width="10" height="10" transform="rotate(-90 480 100)" fill="#D2D3D5"/>
<rect x="510" y="100" width="10" height="10" transform="rotate(-90 510 100)" fill="#D2D3D5"/>
<rect x="540" y="100" width="10" height="10" transform="rotate(-90 540 100)" fill="#D2D3D5"/>
<rect x="570" y="100" width="10" height="10" transform="rotate(-90 570 100)" fill="#D2D3D5"/>
<rect x="600" y="100" width="10" height="10" transform="rotate(-90 600 100)" fill="#D2D3D5"/>
<rect x="630" y="100" width="10" height="10" transform="rotate(-90 630 100)" fill="#D2D3D5"/>
<rect y="70" width="10" height="10" transform="rotate(-90 0 70)" fill="#D2D3D5"/>
<rect x="30" y="70" width="10" height="10" transform="rotate(-90 30 70)" fill="#D2D3D5"/>
<rect x="60" y="70" width="10" height="10" transform="rotate(-90 60 70)" fill="#D2D3D5"/>
<rect x="90" y="70" width="10" height="10" transform="rotate(-90 90 70)" fill="#D2D3D5"/>
<rect x="120" y="70" width="10" height="10" transform="rotate(-90 120 70)" fill="#D2D3D5"/>
<rect x="150" y="70" width="10" height="10" transform="rotate(-90 150 70)" fill="#D2D3D5"/>
<rect x="180" y="70" width="10" height="10" transform="rotate(-90 180 70)" fill="#D2D3D5"/>
<rect x="210" y="70" width="10" height="10" transform="rotate(-90 210 70)" fill="#D2D3D5"/>
<rect x="240" y="70" width="10" height="10" transform="rotate(-90 240 70)" fill="#D2D3D5"/>
<rect x="270" y="70" width="10" height="10" transform="rotate(-90 270 70)" fill="#D2D3D5"/>
<rect x="300" y="70" width="10" height="10" transform="rotate(-90 300 70)" fill="#D2D3D5"/>
<rect x="330" y="70" width="10" height="10" transform="rotate(-90 330 70)" fill="#D2D3D5"/>
<rect x="360" y="70" width="10" height="10" transform="rotate(-90 360 70)" fill="#D2D3D5"/>
<rect x="390" y="70" width="10" height="10" transform="rotate(-90 390 70)" fill="#D2D3D5"/>
<rect x="420" y="70" width="10" height="10" transform="rotate(-90 420 70)" fill="#D2D3D5"/>
<rect x="450" y="70" width="10" height="10" transform="rotate(-90 450 70)" fill="#D2D3D5"/>
<rect x="480" y="70" width="10" height="10" transform="rotate(-90 480 70)" fill="#D2D3D5"/>
<rect x="510" y="70" width="10" height="10" transform="rotate(-90 510 70)" fill="#D2D3D5"/>
<rect x="540" y="70" width="10" height="10" transform="rotate(-90 540 70)" fill="#D2D3D5"/>
<rect x="570" y="70" width="10" height="10" transform="rotate(-90 570 70)" fill="#D2D3D5"/>
<rect x="600" y="70" width="10" height="10" transform="rotate(-90 600 70)" fill="#D2D3D5"/>
<rect x="630" y="70" width="10" height="10" transform="rotate(-90 630 70)" fill="#D2D3D5"/>
<rect y="40" width="10" height="10" transform="rotate(-90 0 40)" fill="#D2D3D5"/>
<rect x="30" y="40" width="10" height="10" transform="rotate(-90 30 40)" fill="#D2D3D5"/>
<rect x="60" y="40" width="10" height="10" transform="rotate(-90 60 40)" fill="#D2D3D5"/>
<rect x="90" y="40" width="10" height="10" transform="rotate(-90 90 40)" fill="#D2D3D5"/>
<rect x="120" y="40" width="10" height="10" transform="rotate(-90 120 40)" fill="#D2D3D5"/>
<rect x="150" y="40" width="10" height="10" transform="rotate(-90 150 40)" fill="#D2D3D5"/>
<rect x="180" y="40" width="10" height="10" transform="rotate(-90 180 40)" fill="#D2D3D5"/>
<rect x="210" y="40" width="10" height="10" transform="rotate(-90 210 40)" fill="#D2D3D5"/>
<rect x="240" y="40" width="10" height="10" transform="rotate(-90 240 40)" fill="#D2D3D5"/>
<rect x="270" y="40" width="10" height="10" transform="rotate(-90 270 40)" fill="#D2D3D5"/>
<rect x="300" y="40" width="10" height="10" transform="rotate(-90 300 40)" fill="#D2D3D5"/>
<rect x="330" y="40" width="10" height="10" transform="rotate(-90 330 40)" fill="#D2D3D5"/>
<rect x="360" y="40" width="10" height="10" transform="rotate(-90 360 40)" fill="#D2D3D5"/>
<rect x="390" y="40" width="10" height="10" transform="rotate(-90 390 40)" fill="#D2D3D5"/>
<rect x="420" y="40" width="10" height="10" transform="rotate(-90 420 40)" fill="#D2D3D5"/>
<rect x="450" y="40" width="10" height="10" transform="rotate(-90 450 40)" fill="#D2D3D5"/>
<rect x="480" y="40" width="10" height="10" transform="rotate(-90 480 40)" fill="#D2D3D5"/>
<rect x="510" y="40" width="10" height="10" transform="rotate(-90 510 40)" fill="#D2D3D5"/>
<rect x="540" y="40" width="10" height="10" transform="rotate(-90 540 40)" fill="#D2D3D5"/>
<rect x="570" y="40" width="10" height="10" transform="rotate(-90 570 40)" fill="#D2D3D5"/>
<rect x="600" y="40" width="10" height="10" transform="rotate(-90 600 40)" fill="#D2D3D5"/>
<rect x="630" y="40" width="10" height="10" transform="rotate(-90 630 40)" fill="#D2D3D5"/>
<rect y="10" width="10" height="10" transform="rotate(-90 0 10)" fill="#D2D3D5"/>
<rect x="30" y="10" width="10" height="10" transform="rotate(-90 30 10)" fill="#D2D3D5"/>
<rect x="60" y="10" width="10" height="10" transform="rotate(-90 60 10)" fill="#D2D3D5"/>
<rect x="90" y="10" width="10" height="10" transform="rotate(-90 90 10)" fill="#D2D3D5"/>
<rect x="120" y="10" width="10" height="10" transform="rotate(-90 120 10)" fill="#D2D3D5"/>
<rect x="150" y="10" width="10" height="10" transform="rotate(-90 150 10)" fill="#D2D3D5"/>
<rect x="180" y="10" width="10" height="10" transform="rotate(-90 180 10)" fill="#D2D3D5"/>
<rect x="210" y="10" width="10" height="10" transform="rotate(-90 210 10)" fill="#D2D3D5"/>
<rect x="240" y="10" width="10" height="10" transform="rotate(-90 240 10)" fill="#D2D3D5"/>
<rect x="270" y="10" width="10" height="10" transform="rotate(-90 270 10)" fill="#D2D3D5"/>
<rect x="300" y="10" width="10" height="10" transform="rotate(-90 300 10)" fill="#D2D3D5"/>
<rect x="330" y="10" width="10" height="10" transform="rotate(-90 330 10)" fill="#D2D3D5"/>
<rect x="360" y="10" width="10" height="10" transform="rotate(-90 360 10)" fill="#D2D3D5"/>
<rect x="390" y="10" width="10" height="10" transform="rotate(-90 390 10)" fill="#D2D3D5"/>
<rect x="420" y="10" width="10" height="10" transform="rotate(-90 420 10)" fill="#D2D3D5"/>
<rect x="450" y="10" width="10" height="10" transform="rotate(-90 450 10)" fill="#D2D3D5"/>
<rect x="480" y="10" width="10" height="10" transform="rotate(-90 480 10)" fill="#D2D3D5"/>
<rect x="510" y="10" width="10" height="10" transform="rotate(-90 510 10)" fill="#D2D3D5"/>
<rect x="540" y="10" width="10" height="10" transform="rotate(-90 540 10)" fill="#D2D3D5"/>
<rect x="570" y="10" width="10" height="10" transform="rotate(-90 570 10)" fill="#D2D3D5"/>
<rect x="600" y="10" width="10" height="10" transform="rotate(-90 600 10)" fill="#D2D3D5"/>
<rect x="630" y="10" width="10" height="10" transform="rotate(-90 630 10)" fill="#D2D3D5"/>
</svg>
