<svg width="281" height="86" viewBox="0 0 281 86" fill="none" xmlns="http://www.w3.org/2000/svg">
<path d="M0.23999 42V0.783997H15.728V30.224H32.56V42H0.23999Z" fill="black"/>
<path d="M52.09 42.64C48.506 42.64 45.2847 42.0427 42.426 40.848C39.61 39.6533 37.37 37.904 35.706 35.6C34.042 33.2533 33.21 30.3733 33.21 26.96C33.21 22.1387 34.6393 18.2773 37.498 15.376C40.3993 12.4747 44.7087 11.024 50.426 11.024C55.6313 11.024 59.7913 12.304 62.906 14.864C66.0207 17.424 67.578 21.072 67.578 25.808V30.992H47.354C47.994 31.8027 49.0393 32.4427 50.49 32.912C51.9833 33.3387 53.9033 33.552 56.25 33.552C58.17 33.552 60.026 33.4027 61.818 33.104C63.61 32.7627 65.018 32.4 66.042 32.016V40.336C62.842 41.872 58.1913 42.64 52.09 42.64ZM47.354 23.248H54.33V22.672C54.33 22.0747 54.0953 21.52 53.626 21.008C53.1567 20.4533 52.2607 20.176 50.938 20.176C49.658 20.176 48.7407 20.4747 48.186 21.072C47.6313 21.6693 47.354 22.3947 47.354 23.248Z" fill="black"/>
<path d="M80.2105 42.64C78.2905 42.64 76.5198 42.2987 74.8985 41.616C73.2772 40.9333 71.9758 39.8453 70.9945 38.352C70.0132 36.8587 69.5225 34.9173 69.5225 32.528C69.5225 29.1147 70.5892 26.5333 72.7225 24.784C74.8985 23.0347 78.2265 22.16 82.7065 22.16H89.4905V21.84C89.4905 21.3707 89.0425 20.9653 88.1465 20.624C87.2505 20.24 85.8852 20.048 84.0505 20.048C82.4292 20.048 80.6585 20.1973 78.7385 20.496C76.8612 20.752 75.0692 21.136 73.3625 21.648V13.328C75.0265 12.6027 77.1385 12.048 79.6985 11.664C82.3012 11.2373 84.7758 11.024 87.1225 11.024C90.4932 11.024 93.4585 11.4933 96.0185 12.432C98.5785 13.328 100.584 14.736 102.034 16.656C103.485 18.5333 104.21 20.944 104.21 23.888V42H90.6425L90.0025 39.824C88.9785 40.6347 87.6558 41.3173 86.0345 41.872C84.4558 42.384 82.5145 42.64 80.2105 42.64ZM86.0345 34.192C86.8452 34.192 87.5065 34.064 88.0185 33.808C88.5732 33.552 89.0638 33.2107 89.4905 32.784V29.968H86.6745C84.7545 29.968 83.7945 30.672 83.7945 32.08C83.7945 33.488 84.5412 34.192 86.0345 34.192Z" fill="black"/>
<path d="M108.365 42V11.664H123.533L123.853 13.392C124.962 12.7947 126.413 12.2613 128.205 11.792C130.04 11.28 131.938 11.024 133.901 11.024V22.416C132.322 22.416 130.552 22.5227 128.589 22.736C126.626 22.9493 125.048 23.2693 123.853 23.696V42H108.365Z" fill="black"/>
<path d="M136.802 42V11.664H151.33L151.65 13.392C152.76 12.7947 154.253 12.2613 156.13 11.792C158.05 11.28 160.12 11.024 162.338 11.024C165.965 11.024 168.589 11.984 170.21 13.904C171.874 15.7813 172.706 18.64 172.706 22.48V42H157.218V24.464C157.218 23.0987 156.514 22.416 155.106 22.416C154.68 22.416 154.168 22.544 153.57 22.8C153.016 23.056 152.589 23.3547 152.29 23.696V42H136.802Z" fill="black"/>
<path d="M188.085 42L203.957 0.783997H220.021L235.893 42H219.765L216.821 34.32H207.157L204.213 42H188.085ZM208.821 23.76H215.093L211.957 15.888L208.821 23.76Z" fill="#3333FF"/>
<path d="M239.115 42V0.783997H254.603V42H239.115Z" fill="#3333FF"/>
<path d="M281 32C281 37.5228 276.523 42 271 42C265.477 42 261 37.5228 261 32C261 26.4772 265.477 22 271 22C276.523 22 281 26.4772 281 32Z" fill="#3333FF"/>
<path d="M127.172 57.6797H124.289L124.273 56.4688H126.891C127.323 56.4688 127.701 56.3958 128.023 56.25C128.346 56.1042 128.596 55.8958 128.773 55.625C128.956 55.349 129.047 55.0208 129.047 54.6406C129.047 54.224 128.966 53.8854 128.805 53.625C128.648 53.3594 128.406 53.1667 128.078 53.0469C127.755 52.9219 127.344 52.8594 126.844 52.8594H124.625V63H123.117V51.625H126.844C127.427 51.625 127.948 51.6849 128.406 51.8047C128.865 51.9193 129.253 52.1016 129.57 52.3516C129.893 52.5964 130.138 52.9089 130.305 53.2891C130.471 53.6693 130.555 54.125 130.555 54.6562C130.555 55.125 130.435 55.5495 130.195 55.9297C129.956 56.3047 129.622 56.612 129.195 56.8516C128.773 57.0911 128.279 57.2448 127.711 57.3125L127.172 57.6797ZM127.102 63H123.695L124.547 61.7734H127.102C127.581 61.7734 127.987 61.6901 128.32 61.5234C128.659 61.3568 128.917 61.1224 129.094 60.8203C129.271 60.513 129.359 60.151 129.359 59.7344C129.359 59.3125 129.284 58.9479 129.133 58.6406C128.982 58.3333 128.745 58.0964 128.422 57.9297C128.099 57.763 127.682 57.6797 127.172 57.6797H125.023L125.039 56.4688H127.977L128.297 56.9062C128.844 56.9531 129.307 57.1094 129.687 57.375C130.068 57.6354 130.357 57.9688 130.555 58.375C130.758 58.7812 130.859 59.2292 130.859 59.7188C130.859 60.4271 130.703 61.026 130.391 61.5156C130.083 62 129.648 62.3698 129.086 62.625C128.523 62.875 127.862 63 127.102 63Z" fill="black"/>
<path d="M134.312 55.875V63H132.867V54.5469H134.273L134.312 55.875ZM136.953 54.5L136.945 55.8438C136.826 55.8177 136.711 55.8021 136.602 55.7969C136.497 55.7865 136.378 55.7812 136.242 55.7812C135.909 55.7812 135.615 55.8333 135.359 55.9375C135.104 56.0417 134.888 56.1875 134.711 56.375C134.534 56.5625 134.393 56.7865 134.289 57.0469C134.19 57.3021 134.125 57.5833 134.094 57.8906L133.687 58.125C133.687 57.6146 133.737 57.1354 133.836 56.6875C133.94 56.2396 134.099 55.8438 134.312 55.5C134.526 55.151 134.797 54.8802 135.125 54.6875C135.458 54.4896 135.854 54.3906 136.312 54.3906C136.417 54.3906 136.536 54.4036 136.672 54.4297C136.807 54.4505 136.901 54.474 136.953 54.5Z" fill="black"/>
<path d="M137.75 58.8672V58.6875C137.75 58.0781 137.839 57.513 138.016 56.9922C138.193 56.4661 138.448 56.0104 138.781 55.625C139.115 55.2344 139.518 54.9323 139.992 54.7188C140.466 54.5 140.997 54.3906 141.586 54.3906C142.18 54.3906 142.714 54.5 143.187 54.7188C143.667 54.9323 144.073 55.2344 144.406 55.625C144.745 56.0104 145.003 56.4661 145.18 56.9922C145.357 57.513 145.445 58.0781 145.445 58.6875V58.8672C145.445 59.4766 145.357 60.0417 145.18 60.5625C145.003 61.0833 144.745 61.5391 144.406 61.9297C144.073 62.3151 143.669 62.6172 143.195 62.8359C142.727 63.0495 142.195 63.1562 141.602 63.1562C141.008 63.1562 140.474 63.0495 140 62.8359C139.526 62.6172 139.12 62.3151 138.781 61.9297C138.448 61.5391 138.193 61.0833 138.016 60.5625C137.839 60.0417 137.75 59.4766 137.75 58.8672ZM139.195 58.6875V58.8672C139.195 59.2891 139.245 59.6875 139.344 60.0625C139.443 60.4323 139.591 60.7604 139.789 61.0469C139.992 61.3333 140.245 61.5599 140.547 61.7266C140.849 61.888 141.201 61.9688 141.602 61.9688C141.997 61.9688 142.344 61.888 142.641 61.7266C142.943 61.5599 143.193 61.3333 143.391 61.0469C143.589 60.7604 143.737 60.4323 143.836 60.0625C143.94 59.6875 143.992 59.2891 143.992 58.8672V58.6875C143.992 58.2708 143.94 57.8776 143.836 57.5078C143.737 57.1328 143.586 56.8021 143.383 56.5156C143.185 56.224 142.935 55.9948 142.633 55.8281C142.336 55.6615 141.987 55.5781 141.586 55.5781C141.19 55.5781 140.841 55.6615 140.539 55.8281C140.242 55.9948 139.992 56.224 139.789 56.5156C139.591 56.8021 139.443 57.1328 139.344 57.5078C139.245 57.8776 139.195 58.2708 139.195 58.6875Z" fill="black"/>
<path d="M152.43 61.0469V54.5469H153.883V63H152.5L152.43 61.0469ZM152.703 59.2656L153.305 59.25C153.305 59.8125 153.245 60.3333 153.125 60.8125C153.01 61.2865 152.823 61.6979 152.562 62.0469C152.302 62.3958 151.961 62.6693 151.539 62.8672C151.117 63.0599 150.604 63.1562 150 63.1562C149.589 63.1562 149.211 63.0964 148.867 62.9766C148.529 62.8568 148.237 62.6719 147.992 62.4219C147.747 62.1719 147.557 61.8464 147.422 61.4453C147.292 61.0443 147.227 60.5625 147.227 60V54.5469H148.672V60.0156C148.672 60.3958 148.714 60.7109 148.797 60.9609C148.885 61.2057 149.003 61.401 149.148 61.5469C149.299 61.6875 149.466 61.7865 149.648 61.8438C149.836 61.901 150.029 61.9297 150.227 61.9297C150.841 61.9297 151.328 61.8125 151.687 61.5781C152.047 61.3385 152.305 61.0182 152.461 60.6172C152.622 60.2109 152.703 59.7604 152.703 59.2656Z" fill="black"/>
<path d="M161.562 54.5469H162.875V62.8203C162.875 63.5651 162.724 64.2005 162.422 64.7266C162.12 65.2526 161.698 65.651 161.156 65.9219C160.62 66.1979 160 66.3359 159.297 66.3359C159.005 66.3359 158.661 66.2891 158.266 66.1953C157.875 66.1068 157.49 65.9531 157.109 65.7344C156.734 65.5208 156.419 65.2318 156.164 64.8672L156.922 64.0078C157.276 64.4349 157.646 64.7318 158.031 64.8984C158.422 65.0651 158.807 65.1484 159.187 65.1484C159.646 65.1484 160.042 65.0625 160.375 64.8906C160.708 64.7188 160.966 64.4635 161.148 64.125C161.336 63.7917 161.43 63.3802 161.43 62.8906V56.4062L161.562 54.5469ZM155.742 58.8672V58.7031C155.742 58.0573 155.818 57.4714 155.969 56.9453C156.125 56.4141 156.346 55.9583 156.633 55.5781C156.924 55.1979 157.276 54.9062 157.687 54.7031C158.099 54.4948 158.562 54.3906 159.078 54.3906C159.609 54.3906 160.073 54.4844 160.469 54.6719C160.87 54.8542 161.208 55.1224 161.484 55.4766C161.766 55.8255 161.987 56.2474 162.148 56.7422C162.31 57.237 162.422 57.7969 162.484 58.4219V59.1406C162.427 59.7604 162.315 60.3177 162.148 60.8125C161.987 61.3073 161.766 61.7292 161.484 62.0781C161.208 62.4271 160.87 62.6953 160.469 62.8828C160.068 63.0651 159.599 63.1562 159.062 63.1562C158.557 63.1562 158.099 63.0495 157.687 62.8359C157.281 62.6224 156.932 62.3229 156.641 61.9375C156.349 61.5521 156.125 61.099 155.969 60.5781C155.818 60.0521 155.742 59.4818 155.742 58.8672ZM157.187 58.7031V58.8672C157.187 59.2891 157.229 59.6849 157.312 60.0547C157.401 60.4245 157.534 60.75 157.711 61.0312C157.893 61.3125 158.125 61.5339 158.406 61.6953C158.687 61.8516 159.023 61.9297 159.414 61.9297C159.893 61.9297 160.289 61.8281 160.602 61.625C160.914 61.4219 161.161 61.1536 161.344 60.8203C161.531 60.487 161.677 60.125 161.781 59.7344V57.8516C161.724 57.5651 161.635 57.2891 161.516 57.0234C161.401 56.7526 161.25 56.513 161.062 56.3047C160.88 56.0911 160.654 55.9219 160.383 55.7969C160.112 55.6719 159.794 55.6094 159.43 55.6094C159.034 55.6094 158.693 55.6927 158.406 55.8594C158.125 56.0208 157.893 56.2448 157.711 56.5312C157.534 56.8125 157.401 57.1406 157.312 57.5156C157.229 57.8854 157.187 58.2812 157.187 58.7031Z" fill="black"/>
<path d="M166.516 51V63H165.07V51H166.516ZM166.172 58.4531L165.57 58.4297C165.576 57.8516 165.661 57.3177 165.828 56.8281C165.995 56.3333 166.229 55.9036 166.531 55.5391C166.833 55.1745 167.193 54.8932 167.609 54.6953C168.031 54.4922 168.497 54.3906 169.008 54.3906C169.424 54.3906 169.799 54.4479 170.133 54.5625C170.466 54.6719 170.75 54.849 170.984 55.0938C171.224 55.3385 171.406 55.6562 171.531 56.0469C171.656 56.4323 171.719 56.9036 171.719 57.4609V63H170.266V57.4453C170.266 57.0026 170.201 56.6484 170.07 56.3828C169.94 56.112 169.75 55.9167 169.5 55.7969C169.25 55.6719 168.943 55.6094 168.578 55.6094C168.219 55.6094 167.891 55.6849 167.594 55.8359C167.302 55.987 167.049 56.1953 166.836 56.4609C166.628 56.7266 166.464 57.0312 166.344 57.375C166.229 57.7135 166.172 58.0729 166.172 58.4531Z" fill="black"/>
<path d="M177.422 54.5469V55.6562H172.852V54.5469H177.422ZM174.398 52.4922H175.844V60.9062C175.844 61.1927 175.888 61.4089 175.977 61.5547C176.065 61.7005 176.18 61.7969 176.32 61.8438C176.461 61.8906 176.612 61.9141 176.773 61.9141C176.893 61.9141 177.018 61.9036 177.148 61.8828C177.284 61.8568 177.385 61.8359 177.453 61.8203L177.461 63C177.346 63.0365 177.195 63.0703 177.008 63.1016C176.826 63.138 176.604 63.1562 176.344 63.1562C175.99 63.1562 175.664 63.0859 175.367 62.9453C175.07 62.8047 174.833 62.5703 174.656 62.2422C174.484 61.9089 174.398 61.4609 174.398 60.8984V52.4922Z" fill="black"/>
<path d="M186.625 54.5469V55.6562H182.055V54.5469H186.625ZM183.602 52.4922H185.047V60.9062C185.047 61.1927 185.091 61.4089 185.18 61.5547C185.268 61.7005 185.383 61.7969 185.523 61.8438C185.664 61.8906 185.815 61.9141 185.977 61.9141C186.096 61.9141 186.221 61.9036 186.352 61.8828C186.487 61.8568 186.589 61.8359 186.656 61.8203L186.664 63C186.549 63.0365 186.398 63.0703 186.211 63.1016C186.029 63.138 185.807 63.1562 185.547 63.1562C185.193 63.1562 184.867 63.0859 184.57 62.9453C184.273 62.8047 184.036 62.5703 183.859 62.2422C183.687 61.9089 183.602 61.4609 183.602 60.8984V52.4922Z" fill="black"/>
<path d="M187.781 58.8672V58.6875C187.781 58.0781 187.87 57.513 188.047 56.9922C188.224 56.4661 188.479 56.0104 188.812 55.625C189.146 55.2344 189.549 54.9323 190.023 54.7188C190.497 54.5 191.029 54.3906 191.617 54.3906C192.211 54.3906 192.745 54.5 193.219 54.7188C193.698 54.9323 194.104 55.2344 194.437 55.625C194.776 56.0104 195.034 56.4661 195.211 56.9922C195.388 57.513 195.477 58.0781 195.477 58.6875V58.8672C195.477 59.4766 195.388 60.0417 195.211 60.5625C195.034 61.0833 194.776 61.5391 194.437 61.9297C194.104 62.3151 193.701 62.6172 193.227 62.8359C192.758 63.0495 192.227 63.1562 191.633 63.1562C191.039 63.1562 190.505 63.0495 190.031 62.8359C189.557 62.6172 189.151 62.3151 188.812 61.9297C188.479 61.5391 188.224 61.0833 188.047 60.5625C187.87 60.0417 187.781 59.4766 187.781 58.8672ZM189.227 58.6875V58.8672C189.227 59.2891 189.276 59.6875 189.375 60.0625C189.474 60.4323 189.622 60.7604 189.82 61.0469C190.023 61.3333 190.276 61.5599 190.578 61.7266C190.88 61.888 191.232 61.9688 191.633 61.9688C192.029 61.9688 192.375 61.888 192.672 61.7266C192.974 61.5599 193.224 61.3333 193.422 61.0469C193.62 60.7604 193.768 60.4323 193.867 60.0625C193.971 59.6875 194.023 59.2891 194.023 58.8672V58.6875C194.023 58.2708 193.971 57.8776 193.867 57.5078C193.768 57.1328 193.617 56.8021 193.414 56.5156C193.216 56.224 192.966 55.9948 192.664 55.8281C192.367 55.6615 192.018 55.5781 191.617 55.5781C191.221 55.5781 190.872 55.6615 190.57 55.8281C190.273 55.9948 190.023 56.224 189.82 56.5156C189.622 56.8021 189.474 57.1328 189.375 57.5078C189.276 57.8776 189.227 58.2708 189.227 58.6875Z" fill="black"/>
<path d="M203.633 62.125L205.984 54.5469H207.531L204.141 64.3047C204.062 64.513 203.958 64.737 203.828 64.9766C203.703 65.2214 203.542 65.4531 203.344 65.6719C203.146 65.8906 202.906 66.0677 202.625 66.2031C202.349 66.3438 202.018 66.4141 201.633 66.4141C201.518 66.4141 201.372 66.3984 201.195 66.3672C201.018 66.3359 200.893 66.3099 200.82 66.2891L200.812 65.1172C200.854 65.1224 200.919 65.1276 201.008 65.1328C201.102 65.1432 201.167 65.1484 201.203 65.1484C201.531 65.1484 201.81 65.1042 202.039 65.0156C202.268 64.9323 202.461 64.7891 202.617 64.5859C202.779 64.388 202.917 64.1146 203.031 63.7656L203.633 62.125ZM201.906 54.5469L204.102 61.1094L204.477 62.6328L203.437 63.1641L200.328 54.5469H201.906Z" fill="black"/>
<path d="M208.328 58.8672V58.6875C208.328 58.0781 208.417 57.513 208.594 56.9922C208.771 56.4661 209.026 56.0104 209.359 55.625C209.693 55.2344 210.096 54.9323 210.57 54.7188C211.044 54.5 211.576 54.3906 212.164 54.3906C212.758 54.3906 213.292 54.5 213.766 54.7188C214.245 54.9323 214.651 55.2344 214.984 55.625C215.323 56.0104 215.581 56.4661 215.758 56.9922C215.935 57.513 216.023 58.0781 216.023 58.6875V58.8672C216.023 59.4766 215.935 60.0417 215.758 60.5625C215.581 61.0833 215.323 61.5391 214.984 61.9297C214.651 62.3151 214.247 62.6172 213.773 62.8359C213.305 63.0495 212.773 63.1562 212.18 63.1562C211.586 63.1562 211.052 63.0495 210.578 62.8359C210.104 62.6172 209.698 62.3151 209.359 61.9297C209.026 61.5391 208.771 61.0833 208.594 60.5625C208.417 60.0417 208.328 59.4766 208.328 58.8672ZM209.773 58.6875V58.8672C209.773 59.2891 209.823 59.6875 209.922 60.0625C210.021 60.4323 210.169 60.7604 210.367 61.0469C210.57 61.3333 210.823 61.5599 211.125 61.7266C211.427 61.888 211.779 61.9688 212.18 61.9688C212.576 61.9688 212.922 61.888 213.219 61.7266C213.521 61.5599 213.771 61.3333 213.969 61.0469C214.167 60.7604 214.315 60.4323 214.414 60.0625C214.518 59.6875 214.57 59.2891 214.57 58.8672V58.6875C214.57 58.2708 214.518 57.8776 214.414 57.5078C214.315 57.1328 214.164 56.8021 213.961 56.5156C213.763 56.224 213.513 55.9948 213.211 55.8281C212.914 55.6615 212.565 55.5781 212.164 55.5781C211.768 55.5781 211.419 55.6615 211.117 55.8281C210.82 55.9948 210.57 56.224 210.367 56.5156C210.169 56.8021 210.021 57.1328 209.922 57.5078C209.823 57.8776 209.773 58.2708 209.773 58.6875Z" fill="black"/>
<path d="M223.008 61.0469V54.5469H224.461V63H223.078L223.008 61.0469ZM223.281 59.2656L223.883 59.25C223.883 59.8125 223.823 60.3333 223.703 60.8125C223.589 61.2865 223.401 61.6979 223.141 62.0469C222.88 62.3958 222.539 62.6693 222.117 62.8672C221.695 63.0599 221.182 63.1562 220.578 63.1562C220.167 63.1562 219.789 63.0964 219.445 62.9766C219.107 62.8568 218.815 62.6719 218.57 62.4219C218.326 62.1719 218.135 61.8464 218 61.4453C217.87 61.0443 217.805 60.5625 217.805 60V54.5469H219.25V60.0156C219.25 60.3958 219.292 60.7109 219.375 60.9609C219.464 61.2057 219.581 61.401 219.727 61.5469C219.878 61.6875 220.044 61.7865 220.227 61.8438C220.414 61.901 220.607 61.9297 220.805 61.9297C221.419 61.9297 221.906 61.8125 222.266 61.5781C222.625 61.3385 222.883 61.0182 223.039 60.6172C223.201 60.2109 223.281 59.7604 223.281 59.2656Z" fill="black"/>
<path d="M230.625 51H232.078V61.3594L231.953 63H230.625V51ZM237.789 58.7031V58.8672C237.789 59.4818 237.716 60.0521 237.57 60.5781C237.424 61.099 237.211 61.5521 236.93 61.9375C236.648 62.3229 236.305 62.6224 235.898 62.8359C235.492 63.0495 235.026 63.1562 234.5 63.1562C233.964 63.1562 233.492 63.0651 233.086 62.8828C232.685 62.6953 232.346 62.4271 232.07 62.0781C231.794 61.7292 231.573 61.3073 231.406 60.8125C231.245 60.3177 231.133 59.7604 231.07 59.1406V58.4219C231.133 57.7969 231.245 57.237 231.406 56.7422C231.573 56.2474 231.794 55.8255 232.07 55.4766C232.346 55.1224 232.685 54.8542 233.086 54.6719C233.487 54.4844 233.953 54.3906 234.484 54.3906C235.016 54.3906 235.487 54.4948 235.898 54.7031C236.31 54.9062 236.654 55.1979 236.93 55.5781C237.211 55.9583 237.424 56.4141 237.57 56.9453C237.716 57.4714 237.789 58.0573 237.789 58.7031ZM236.336 58.8672V58.7031C236.336 58.2812 236.297 57.8854 236.219 57.5156C236.141 57.1406 236.016 56.8125 235.844 56.5312C235.672 56.2448 235.445 56.0208 235.164 55.8594C234.883 55.6927 234.536 55.6094 234.125 55.6094C233.76 55.6094 233.443 55.6719 233.172 55.7969C232.906 55.9219 232.68 56.0911 232.492 56.3047C232.305 56.513 232.151 56.7526 232.031 57.0234C231.917 57.2891 231.831 57.5651 231.773 57.8516V59.7344C231.857 60.099 231.992 60.4505 232.18 60.7891C232.372 61.1224 232.628 61.3958 232.945 61.6094C233.268 61.8229 233.667 61.9297 234.141 61.9297C234.531 61.9297 234.865 61.8516 235.141 61.6953C235.422 61.5339 235.648 61.3125 235.82 61.0312C235.997 60.75 236.128 60.4245 236.211 60.0547C236.294 59.6849 236.336 59.2891 236.336 58.8672Z" fill="black"/>
<path d="M241.898 62.125L244.25 54.5469H245.797L242.406 64.3047C242.328 64.513 242.224 64.737 242.094 64.9766C241.969 65.2214 241.807 65.4531 241.609 65.6719C241.411 65.8906 241.172 66.0677 240.891 66.2031C240.615 66.3438 240.284 66.4141 239.898 66.4141C239.784 66.4141 239.638 66.3984 239.461 66.3672C239.284 66.3359 239.159 66.3099 239.086 66.2891L239.078 65.1172C239.12 65.1224 239.185 65.1276 239.273 65.1328C239.367 65.1432 239.432 65.1484 239.469 65.1484C239.797 65.1484 240.076 65.1042 240.305 65.0156C240.534 64.9323 240.727 64.7891 240.883 64.5859C241.044 64.388 241.182 64.1146 241.297 63.7656L241.898 62.125ZM240.172 54.5469L242.367 61.1094L242.742 62.6328L241.703 63.1641L238.594 54.5469H240.172Z" fill="black"/>
<path d="M156.633 82H154.258L154.273 80.7734H156.633C157.445 80.7734 158.122 80.6042 158.664 80.2656C159.206 79.9219 159.612 79.4427 159.883 78.8281C160.159 78.2083 160.297 77.4844 160.297 76.6562V75.9609C160.297 75.3099 160.219 74.7318 160.062 74.2266C159.906 73.7161 159.677 73.2865 159.375 72.9375C159.073 72.5833 158.703 72.3151 158.266 72.1328C157.833 71.9505 157.336 71.8594 156.773 71.8594H154.211V70.625H156.773C157.518 70.625 158.198 70.75 158.812 71C159.427 71.2448 159.956 71.6016 160.398 72.0703C160.846 72.5339 161.19 73.0964 161.43 73.7578C161.669 74.4141 161.789 75.1536 161.789 75.9766V76.6562C161.789 77.4792 161.669 78.2214 161.43 78.8828C161.19 79.5391 160.844 80.099 160.391 80.5625C159.943 81.026 159.401 81.3828 158.766 81.6328C158.135 81.8776 157.424 82 156.633 82ZM155.062 70.625V82H153.555V70.625H155.062Z" fill="black"/>
<path d="M168.82 80.5547V76.2031C168.82 75.8698 168.753 75.5807 168.617 75.3359C168.487 75.0859 168.289 74.8932 168.023 74.7578C167.758 74.6224 167.43 74.5547 167.039 74.5547C166.674 74.5547 166.354 74.6172 166.078 74.7422C165.807 74.8672 165.594 75.0312 165.437 75.2344C165.286 75.4375 165.211 75.6562 165.211 75.8906H163.766C163.766 75.5885 163.844 75.2891 164 74.9922C164.156 74.6953 164.38 74.4271 164.672 74.1875C164.969 73.9427 165.323 73.75 165.734 73.6094C166.151 73.4635 166.615 73.3906 167.125 73.3906C167.74 73.3906 168.281 73.4948 168.75 73.7031C169.224 73.9115 169.594 74.2266 169.859 74.6484C170.13 75.0651 170.266 75.5885 170.266 76.2188V80.1562C170.266 80.4375 170.289 80.737 170.336 81.0547C170.388 81.3724 170.464 81.6458 170.562 81.875V82H169.055C168.982 81.8333 168.924 81.612 168.883 81.3359C168.841 81.0547 168.82 80.7943 168.82 80.5547ZM169.07 76.875L169.086 77.8906H167.625C167.214 77.8906 166.846 77.9245 166.523 77.9922C166.201 78.0547 165.93 78.151 165.711 78.2812C165.492 78.4115 165.326 78.5755 165.211 78.7734C165.096 78.9661 165.039 79.1927 165.039 79.4531C165.039 79.7188 165.099 79.9609 165.219 80.1797C165.339 80.3984 165.518 80.5729 165.758 80.7031C166.003 80.8281 166.302 80.8906 166.656 80.8906C167.099 80.8906 167.49 80.7969 167.828 80.6094C168.167 80.4219 168.435 80.1927 168.633 79.9219C168.836 79.651 168.945 79.388 168.961 79.1328L169.578 79.8281C169.542 80.0469 169.443 80.2891 169.281 80.5547C169.12 80.8203 168.904 81.0755 168.633 81.3203C168.367 81.5599 168.049 81.7604 167.68 81.9219C167.315 82.0781 166.904 82.1562 166.445 82.1562C165.872 82.1562 165.37 82.0443 164.937 81.8203C164.51 81.5964 164.177 81.2969 163.937 80.9219C163.703 80.5417 163.586 80.1172 163.586 79.6484C163.586 79.1953 163.674 78.7969 163.852 78.4531C164.029 78.1042 164.284 77.8151 164.617 77.5859C164.951 77.3516 165.352 77.1745 165.82 77.0547C166.289 76.9349 166.812 76.875 167.391 76.875H169.07Z" fill="black"/>
<path d="M176.078 73.5469V74.6562H171.508V73.5469H176.078ZM173.055 71.4922H174.5V79.9062C174.5 80.1927 174.544 80.4089 174.633 80.5547C174.721 80.7005 174.836 80.7969 174.977 80.8438C175.117 80.8906 175.268 80.9141 175.43 80.9141C175.549 80.9141 175.674 80.9036 175.805 80.8828C175.94 80.8568 176.042 80.8359 176.109 80.8203L176.117 82C176.003 82.0365 175.852 82.0703 175.664 82.1016C175.482 82.138 175.26 82.1562 175 82.1562C174.646 82.1562 174.32 82.0859 174.023 81.9453C173.727 81.8047 173.49 81.5703 173.312 81.2422C173.141 80.9089 173.055 80.4609 173.055 79.8984V71.4922Z" fill="black"/>
<path d="M182.758 80.5547V76.2031C182.758 75.8698 182.69 75.5807 182.555 75.3359C182.424 75.0859 182.227 74.8932 181.961 74.7578C181.695 74.6224 181.367 74.5547 180.977 74.5547C180.612 74.5547 180.292 74.6172 180.016 74.7422C179.745 74.8672 179.531 75.0312 179.375 75.2344C179.224 75.4375 179.148 75.6562 179.148 75.8906H177.703C177.703 75.5885 177.781 75.2891 177.937 74.9922C178.094 74.6953 178.318 74.4271 178.609 74.1875C178.906 73.9427 179.26 73.75 179.672 73.6094C180.089 73.4635 180.552 73.3906 181.062 73.3906C181.677 73.3906 182.219 73.4948 182.687 73.7031C183.161 73.9115 183.531 74.2266 183.797 74.6484C184.068 75.0651 184.203 75.5885 184.203 76.2188V80.1562C184.203 80.4375 184.227 80.737 184.273 81.0547C184.326 81.3724 184.401 81.6458 184.5 81.875V82H182.992C182.919 81.8333 182.862 81.612 182.82 81.3359C182.779 81.0547 182.758 80.7943 182.758 80.5547ZM183.008 76.875L183.023 77.8906H181.562C181.151 77.8906 180.784 77.9245 180.461 77.9922C180.138 78.0547 179.867 78.151 179.648 78.2812C179.43 78.4115 179.263 78.5755 179.148 78.7734C179.034 78.9661 178.977 79.1927 178.977 79.4531C178.977 79.7188 179.036 79.9609 179.156 80.1797C179.276 80.3984 179.456 80.5729 179.695 80.7031C179.94 80.8281 180.24 80.8906 180.594 80.8906C181.036 80.8906 181.427 80.7969 181.766 80.6094C182.104 80.4219 182.372 80.1927 182.57 79.9219C182.773 79.651 182.883 79.388 182.898 79.1328L183.516 79.8281C183.479 80.0469 183.38 80.2891 183.219 80.5547C183.057 80.8203 182.841 81.0755 182.57 81.3203C182.305 81.5599 181.987 81.7604 181.617 81.9219C181.253 82.0781 180.841 82.1562 180.383 82.1562C179.81 82.1562 179.307 82.0443 178.875 81.8203C178.448 81.5964 178.115 81.2969 177.875 80.9219C177.641 80.5417 177.523 80.1172 177.523 79.6484C177.523 79.1953 177.612 78.7969 177.789 78.4531C177.966 78.1042 178.221 77.8151 178.555 77.5859C178.888 77.3516 179.289 77.1745 179.758 77.0547C180.227 76.9349 180.75 76.875 181.328 76.875H183.008Z" fill="black"/>
<path d="M193.656 78.5625L195.914 70.625H197.008L196.375 73.7109L193.945 82H192.859L193.656 78.5625ZM191.32 70.625L193.117 78.4062L193.656 82H192.578L189.82 70.625H191.32ZM199.93 78.3984L201.687 70.625H203.195L200.445 82H199.367L199.93 78.3984ZM197.172 70.625L199.367 78.5625L200.164 82H199.078L196.734 73.7109L196.094 70.625H197.172Z" fill="black"/>
<path d="M207.906 82.1562C207.318 82.1562 206.784 82.0573 206.305 81.8594C205.831 81.6562 205.422 81.3724 205.078 81.0078C204.74 80.6432 204.479 80.2109 204.297 79.7109C204.115 79.2109 204.023 78.6641 204.023 78.0703V77.7422C204.023 77.0547 204.125 76.4427 204.328 75.9062C204.531 75.3646 204.807 74.9062 205.156 74.5312C205.505 74.1562 205.901 73.8724 206.344 73.6797C206.786 73.487 207.245 73.3906 207.719 73.3906C208.323 73.3906 208.844 73.4948 209.281 73.7031C209.724 73.9115 210.086 74.2031 210.367 74.5781C210.648 74.9479 210.857 75.3854 210.992 75.8906C211.128 76.3906 211.195 76.9375 211.195 77.5312V78.1797H204.883V77H209.75V76.8906C209.729 76.5156 209.651 76.151 209.516 75.7969C209.385 75.4427 209.177 75.151 208.891 74.9219C208.604 74.6927 208.214 74.5781 207.719 74.5781C207.391 74.5781 207.089 74.6484 206.812 74.7891C206.536 74.9245 206.299 75.1276 206.102 75.3984C205.904 75.6693 205.75 76 205.641 76.3906C205.531 76.7812 205.477 77.2318 205.477 77.7422V78.0703C205.477 78.4714 205.531 78.849 205.641 79.2031C205.755 79.5521 205.919 79.8594 206.133 80.125C206.352 80.3906 206.615 80.599 206.922 80.75C207.234 80.901 207.589 80.9766 207.984 80.9766C208.495 80.9766 208.927 80.8724 209.281 80.6641C209.635 80.4557 209.945 80.1771 210.211 79.8281L211.086 80.5234C210.904 80.7995 210.672 81.0625 210.391 81.3125C210.109 81.5625 209.763 81.7656 209.352 81.9219C208.945 82.0781 208.464 82.1562 207.906 82.1562Z" fill="black"/>
<path d="M217.867 80.5547V76.2031C217.867 75.8698 217.799 75.5807 217.664 75.3359C217.534 75.0859 217.336 74.8932 217.07 74.7578C216.805 74.6224 216.477 74.5547 216.086 74.5547C215.721 74.5547 215.401 74.6172 215.125 74.7422C214.854 74.8672 214.641 75.0312 214.484 75.2344C214.333 75.4375 214.258 75.6562 214.258 75.8906H212.812C212.812 75.5885 212.891 75.2891 213.047 74.9922C213.203 74.6953 213.427 74.4271 213.719 74.1875C214.016 73.9427 214.37 73.75 214.781 73.6094C215.198 73.4635 215.661 73.3906 216.172 73.3906C216.786 73.3906 217.328 73.4948 217.797 73.7031C218.271 73.9115 218.641 74.2266 218.906 74.6484C219.177 75.0651 219.312 75.5885 219.312 76.2188V80.1562C219.312 80.4375 219.336 80.737 219.383 81.0547C219.435 81.3724 219.51 81.6458 219.609 81.875V82H218.102C218.029 81.8333 217.971 81.612 217.93 81.3359C217.888 81.0547 217.867 80.7943 217.867 80.5547ZM218.117 76.875L218.133 77.8906H216.672C216.26 77.8906 215.893 77.9245 215.57 77.9922C215.247 78.0547 214.977 78.151 214.758 78.2812C214.539 78.4115 214.372 78.5755 214.258 78.7734C214.143 78.9661 214.086 79.1927 214.086 79.4531C214.086 79.7188 214.146 79.9609 214.266 80.1797C214.385 80.3984 214.565 80.5729 214.805 80.7031C215.049 80.8281 215.349 80.8906 215.703 80.8906C216.146 80.8906 216.536 80.7969 216.875 80.6094C217.214 80.4219 217.482 80.1927 217.68 79.9219C217.883 79.651 217.992 79.388 218.008 79.1328L218.625 79.8281C218.589 80.0469 218.49 80.2891 218.328 80.5547C218.167 80.8203 217.951 81.0755 217.68 81.3203C217.414 81.5599 217.096 81.7604 216.727 81.9219C216.362 82.0781 215.951 82.1562 215.492 82.1562C214.919 82.1562 214.417 82.0443 213.984 81.8203C213.557 81.5964 213.224 81.2969 212.984 80.9219C212.75 80.5417 212.633 80.1172 212.633 79.6484C212.633 79.1953 212.721 78.7969 212.898 78.4531C213.076 78.1042 213.331 77.8151 213.664 77.5859C213.997 77.3516 214.398 77.1745 214.867 77.0547C215.336 76.9349 215.859 76.875 216.437 76.875H218.117Z" fill="black"/>
<path d="M223.156 70V82H221.703V70H223.156Z" fill="black"/>
<path d="M229.016 73.5469V74.6562H224.445V73.5469H229.016ZM225.992 71.4922H227.437V79.9062C227.437 80.1927 227.482 80.4089 227.57 80.5547C227.659 80.7005 227.773 80.7969 227.914 80.8438C228.055 80.8906 228.206 80.9141 228.367 80.9141C228.487 80.9141 228.612 80.9036 228.742 80.8828C228.878 80.8568 228.979 80.8359 229.047 80.8203L229.055 82C228.94 82.0365 228.789 82.0703 228.602 82.1016C228.419 82.138 228.198 82.1562 227.937 82.1562C227.583 82.1562 227.258 82.0859 226.961 81.9453C226.664 81.8047 226.427 81.5703 226.25 81.2422C226.078 80.9089 225.992 80.4609 225.992 79.8984V71.4922Z" fill="black"/>
<path d="M232.156 70V82H230.711V70H232.156ZM231.812 77.4531L231.211 77.4297C231.216 76.8516 231.302 76.3177 231.469 75.8281C231.635 75.3333 231.87 74.9036 232.172 74.5391C232.474 74.1745 232.833 73.8932 233.25 73.6953C233.672 73.4922 234.138 73.3906 234.648 73.3906C235.065 73.3906 235.44 73.4479 235.773 73.5625C236.107 73.6719 236.391 73.849 236.625 74.0938C236.865 74.3385 237.047 74.6562 237.172 75.0469C237.297 75.4323 237.359 75.9036 237.359 76.4609V82H235.906V76.4453C235.906 76.0026 235.841 75.6484 235.711 75.3828C235.581 75.112 235.391 74.9167 235.141 74.7969C234.891 74.6719 234.583 74.6094 234.219 74.6094C233.859 74.6094 233.531 74.6849 233.234 74.8359C232.943 74.987 232.69 75.1953 232.477 75.4609C232.268 75.7266 232.104 76.0312 231.984 76.375C231.87 76.7135 231.812 77.0729 231.812 77.4531Z" fill="black"/>
<path d="M241.898 81.125L244.25 73.5469H245.797L242.406 83.3047C242.328 83.513 242.224 83.737 242.094 83.9766C241.969 84.2214 241.807 84.4531 241.609 84.6719C241.411 84.8906 241.172 85.0677 240.891 85.2031C240.615 85.3438 240.284 85.4141 239.898 85.4141C239.784 85.4141 239.638 85.3984 239.461 85.3672C239.284 85.3359 239.159 85.3099 239.086 85.2891L239.078 84.1172C239.12 84.1224 239.185 84.1276 239.273 84.1328C239.367 84.1432 239.432 84.1484 239.469 84.1484C239.797 84.1484 240.076 84.1042 240.305 84.0156C240.534 83.9323 240.727 83.7891 240.883 83.5859C241.044 83.388 241.182 83.1146 241.297 82.7656L241.898 81.125ZM240.172 73.5469L242.367 80.1094L242.742 81.6328L241.703 82.1641L238.594 73.5469H240.172Z" fill="black"/>
<path d="M265 56.4286C265 52.8782 267.878 50 271.429 50V76.0714C271.429 79.6218 268.55 82.5 265 82.5V56.4286Z" fill="url(#paint0_linear_19_10271)"/>
<path d="M271.429 76.7857C271.429 81.3223 267.751 85 263.214 85C258.678 85 255 81.3223 255 76.7857C255 72.2491 258.678 68.5714 263.214 68.5714C267.751 68.5714 271.429 72.2491 271.429 76.7857Z" fill="url(#paint1_linear_19_10271)"/>
<defs>
<linearGradient id="paint0_linear_19_10271" x1="140.62" y1="0.783997" x2="140.62" y2="85.4141" gradientUnits="userSpaceOnUse">
<stop stop-color="#2F3E46"/>
<stop offset="0.5625" stop-color="#354F52"/>
</linearGradient>
<linearGradient id="paint1_linear_19_10271" x1="269.286" y1="72.8571" x2="263.214" y2="85" gradientUnits="userSpaceOnUse">
<stop stop-color="#354F52"/>
<stop offset="1" stop-color="#2F3E46"/>
</linearGradient>
</defs>
</svg>
