<svg width="281" height="43" viewBox="0 0 281 43" fill="none" xmlns="http://www.w3.org/2000/svg">
<path d="M0.23999 42V0.783997H15.728V30.224H32.56V42H0.23999Z" fill="black"/>
<path d="M52.09 42.64C48.506 42.64 45.2847 42.0427 42.426 40.848C39.61 39.6533 37.37 37.904 35.706 35.6C34.042 33.2533 33.21 30.3733 33.21 26.96C33.21 22.1387 34.6393 18.2773 37.498 15.376C40.3993 12.4747 44.7087 11.024 50.426 11.024C55.6313 11.024 59.7913 12.304 62.906 14.864C66.0207 17.424 67.578 21.072 67.578 25.808V30.992H47.354C47.994 31.8027 49.0393 32.4427 50.49 32.912C51.9833 33.3387 53.9033 33.552 56.25 33.552C58.17 33.552 60.026 33.4027 61.818 33.104C63.61 32.7627 65.018 32.4 66.042 32.016V40.336C62.842 41.872 58.1913 42.64 52.09 42.64ZM47.354 23.248H54.33V22.672C54.33 22.0747 54.0953 21.52 53.626 21.008C53.1567 20.4533 52.2607 20.176 50.938 20.176C49.658 20.176 48.7407 20.4747 48.186 21.072C47.6313 21.6693 47.354 22.3947 47.354 23.248Z" fill="black"/>
<path d="M80.2105 42.64C78.2905 42.64 76.5198 42.2987 74.8985 41.616C73.2772 40.9333 71.9758 39.8453 70.9945 38.352C70.0132 36.8587 69.5225 34.9173 69.5225 32.528C69.5225 29.1147 70.5892 26.5333 72.7225 24.784C74.8985 23.0347 78.2265 22.16 82.7065 22.16H89.4905V21.84C89.4905 21.3707 89.0425 20.9653 88.1465 20.624C87.2505 20.24 85.8852 20.048 84.0505 20.048C82.4292 20.048 80.6585 20.1973 78.7385 20.496C76.8612 20.752 75.0692 21.136 73.3625 21.648V13.328C75.0265 12.6027 77.1385 12.048 79.6985 11.664C82.3012 11.2373 84.7758 11.024 87.1225 11.024C90.4932 11.024 93.4585 11.4933 96.0185 12.432C98.5785 13.328 100.584 14.736 102.034 16.656C103.485 18.5333 104.21 20.944 104.21 23.888V42H90.6425L90.0025 39.824C88.9785 40.6347 87.6558 41.3173 86.0345 41.872C84.4558 42.384 82.5145 42.64 80.2105 42.64ZM86.0345 34.192C86.8452 34.192 87.5065 34.064 88.0185 33.808C88.5732 33.552 89.0638 33.2107 89.4905 32.784V29.968H86.6745C84.7545 29.968 83.7945 30.672 83.7945 32.08C83.7945 33.488 84.5412 34.192 86.0345 34.192Z" fill="black"/>
<path d="M108.365 42V11.664H123.533L123.853 13.392C124.962 12.7947 126.413 12.2613 128.205 11.792C130.04 11.28 131.938 11.024 133.901 11.024V22.416C132.322 22.416 130.552 22.5227 128.589 22.736C126.626 22.9493 125.048 23.2693 123.853 23.696V42H108.365Z" fill="black"/>
<path d="M136.802 42V11.664H151.33L151.65 13.392C152.76 12.7947 154.253 12.2613 156.13 11.792C158.05 11.28 160.12 11.024 162.338 11.024C165.965 11.024 168.589 11.984 170.21 13.904C171.874 15.7813 172.706 18.64 172.706 22.48V42H157.218V24.464C157.218 23.0987 156.514 22.416 155.106 22.416C154.68 22.416 154.168 22.544 153.57 22.8C153.016 23.056 152.589 23.3547 152.29 23.696V42H136.802Z" fill="black"/>
<path d="M188.085 42L203.957 0.783997H220.021L235.893 42H219.765L216.821 34.32H207.157L204.213 42H188.085ZM208.821 23.76H215.093L211.957 15.888L208.821 23.76Z" fill="#3333FF"/>
<path d="M239.115 42V0.783997H254.603V42H239.115Z" fill="#3333FF"/>
<path d="M281 32C281 37.5228 276.523 42 271 42C265.477 42 261 37.5228 261 32C261 26.4772 265.477 22 271 22C276.523 22 281 26.4772 281 32Z" fill="#3333FF"/>
</svg>
